<?xml version="1.0" encoding="utf-8"?>
<svg xmlns="http://www.w3.org/2000/svg" xmlns:xlink="http://www.w3.org/1999/xlink">
  <symbol id="list" viewBox="0 0 18 19">
    <path d="M3.51562 8.75539C1.57709 8.75539 0 7.22262 0 5.33857C0 3.45452 1.57709 1.92175 3.51562 1.92175C5.45416 1.92175 7.03125 3.45452 7.03125 5.33857C7.03125 7.22262 5.45416 8.75539 3.51562 8.75539ZM3.51562 3.28848C2.35245 3.28848 1.40625 4.20808 1.40625 5.33857C1.40625 6.46906 2.35245 7.38866 3.51562 7.38866C4.6788 7.38866 5.625 6.46906 5.625 5.33857C5.625 4.20808 4.6788 3.28848 3.51562 3.28848ZM18 4.65521H8.4375V6.02193H18V4.65521ZM3.51562 4.65521C3.12794 4.65521 2.8125 4.96179 2.8125 5.33857C2.8125 5.71535 3.12794 6.02193 3.51562 6.02193C3.90331 6.02193 4.21875 5.71535 4.21875 5.33857C4.21875 4.96179 3.90331 4.65521 3.51562 4.65521ZM3.51562 16.9557C1.57709 16.9557 0 15.423 0 13.5389C0 11.6549 1.57709 10.1221 3.51562 10.1221C5.45416 10.1221 7.03125 11.6549 7.03125 13.5389C7.03125 15.423 5.45416 16.9557 3.51562 16.9557ZM3.51562 11.4888C2.35245 11.4888 1.40625 12.4084 1.40625 13.5389C1.40625 14.6694 2.35245 15.589 3.51562 15.589C4.6788 15.589 5.625 14.6694 5.625 13.5389C5.625 12.4084 4.6788 11.4888 3.51562 11.4888ZM18 12.8556H8.4375V14.2223H18V12.8556Z"/>
  </symbol>
  <symbol id="login" viewBox="0 0 24 24" fill="none">
    <path d="M13 2H17C17.5304 2 18.0391 2.21071 18.4142 2.58579C18.7893 2.96086 19 3.46957 19 4V18C19 18.5304 18.7893 19.0391 18.4142 19.4142C18.0391 19.7893 17.5304 20 17 20H13" stroke-width="2" stroke-linecap="round" stroke-linejoin="round"/>
    <path d="M8 16L13 11L8 6" stroke-width="2" stroke-linecap="round" stroke-linejoin="round"/>
    <path d="M13 11H1" stroke-width="2" stroke-linecap="round" stroke-linejoin="round"/>
  </symbol>
  <symbol id="plus" viewBox="0 0 18 19">
    <g clip-path="url(#clip0)">
    <path d="M8.33562 13.2526V10.1769H5.17155C4.78322 10.1769 4.46843 9.87093 4.46843 9.49351C4.46843 9.11608 4.78322 8.81014 5.17155 8.81014H8.33562V5.70145C8.33562 5.32403 8.65041 5.01809 9.03874 5.01809C9.42708 5.01809 9.74187 5.32403 9.74187 5.70145V8.81014H12.9059C13.2943 8.81014 13.6091 9.11608 13.6091 9.49351C13.6091 9.87093 13.2943 10.1769 12.9059 10.1769H9.74187V13.2526C9.74187 13.63 9.42708 13.936 9.03874 13.936C8.65041 13.936 8.33562 13.63 8.33562 13.2526V13.2526ZM17.2969 12.7401C17.6852 12.7401 18 12.4342 18 12.0567V3.48052C18 1.9733 16.7383 0.74707 15.1875 0.74707H2.8125C1.26169 0.74707 0 1.9733 0 3.48052V15.5077C0 17.0149 1.26169 18.2412 2.8125 18.2412H15.1875C16.7383 18.2412 18 17.0149 18 15.5077C18 15.1303 17.6852 14.8244 17.2969 14.8244C16.9085 14.8244 16.5938 15.1303 16.5938 15.5077C16.5938 16.2613 15.9629 16.8744 15.1875 16.8744H2.8125C2.03709 16.8744 1.40625 16.2613 1.40625 15.5077V3.48052C1.40625 2.72691 2.03709 2.1138 2.8125 2.1138H15.1875C15.9629 2.1138 16.5938 2.72691 16.5938 3.48052V12.0567C16.5938 12.4342 16.9085 12.7401 17.2969 12.7401Z"/>
    </g>
    <defs>
    <clipPath id="clip0">
    <rect width="18" height="17.4941" transform="translate(0 0.74707)"/>
    </clipPath>
    </defs>
  </symbol>
  <symbol id="search" viewBox="0 0 20 21" fill="none">
    <path d="M9.16667 17.8333C12.8486 17.8333 15.8333 14.8486 15.8333 11.1667C15.8333 7.48477 12.8486 4.5 9.16667 4.5C5.48477 4.5 2.5 7.48477 2.5 11.1667C2.5 14.8486 5.48477 17.8333 9.16667 17.8333Z" stroke-width="2" stroke-linecap="round" stroke-linejoin="round"/>
    <path d="M17.5 19.5L13.875 15.875" stroke-width="2" stroke-linecap="round" stroke-linejoin="round"/>
  </symbol>
  <symbol id="chevron-right" viewBox="0 0 24 24" fill="none">
    <path d="M9 18L15 12L9 6" stroke-width="2" stroke-linecap="round" stroke-linejoin="round"/>
  </symbol>

</svg>
