<svg width="121" height="121" viewBox="0 0 121 121" fill="none" xmlns="http://www.w3.org/2000/svg">
<path d="M80.4649 60.5038L117.898 23.0708C122.034 18.9349 122.034 12.2295 117.898 8.1L112.908 3.10972C108.77 -1.02752 102.065 -1.02752 97.9354 3.10972L60.5038 40.5413L23.0708 3.10196C18.9349 -1.03399 12.2295 -1.03399 8.1 3.10196L3.10196 8.09224C-1.03399 12.2295 -1.03399 18.9349 3.10196 23.0644L40.5413 60.5038L3.10972 97.9354C-1.02752 102.073 -1.02752 108.778 3.10972 112.908L8.1 117.898C12.2359 122.034 18.9414 122.034 23.0708 117.898L60.5038 80.4649L97.9354 117.898C102.073 122.034 108.778 122.034 112.908 117.898L117.898 112.908C122.034 108.77 122.034 102.065 117.898 97.9354L80.4649 60.5038Z" fill="#EF333A"/>
</svg>
